<svg width="132" height="150" viewBox="0 0 132 150" fill="none" xmlns="http://www.w3.org/2000/svg">
  <g clip-path="url(#clip0_1_62)">
    <path d="M131.64 75.0134C131.64 66.2929 120.719 58.0285 103.976 52.9035C107.84 35.838 106.122 22.2608 98.5556 17.914C96.8115 16.8943 94.7722 16.4114 92.5451 16.4114V22.395C93.7794 22.395 94.7722 22.6365 95.604 23.0926C99.2532 25.1856 100.836 33.1548 99.6021 43.4048C99.3069 45.927 98.8239 48.5835 98.2336 51.2935C92.9744 50.0056 87.2323 49.0128 81.195 48.3688C77.5726 43.4048 73.8161 38.8969 70.0327 34.9526C78.7801 26.8223 86.9908 22.3682 92.572 22.3682V16.3845C85.193 16.3845 75.5334 21.6437 65.7663 30.7667C55.9993 21.6973 46.3396 16.4919 38.9607 16.4919V22.4755C44.515 22.4755 52.7526 26.9028 61.5 34.9794C57.7434 38.9238 53.9869 43.4048 50.4182 48.3688C44.354 49.0128 38.6119 50.0056 33.3527 51.3204C32.7356 48.6371 32.2794 46.0344 31.9574 43.539C30.6963 33.289 32.2526 25.3197 35.875 23.2C36.68 22.717 37.7264 22.5023 38.9607 22.5023V16.5187C36.7068 16.5187 34.6675 17.0017 32.8966 18.0213C25.3567 22.3682 23.6662 35.9185 27.5569 52.9303C10.8671 58.0821 0 66.3197 0 75.0134C0 83.734 10.9208 91.9984 27.6643 97.1234C23.8004 114.189 25.5177 127.766 33.0844 132.113C34.8285 133.133 36.8678 133.615 39.1217 133.615C46.5006 133.615 56.1603 128.356 65.9273 119.233C75.6943 128.303 85.354 133.508 92.7329 133.508C94.9869 133.508 97.0262 133.025 98.7971 132.006C106.337 127.659 108.027 114.108 104.137 97.0965C120.773 91.9715 131.64 83.7071 131.64 75.0134V75.0134ZM96.7041 57.1162C95.7113 60.5776 94.4771 64.1463 93.0818 67.715C91.9816 65.5684 90.8278 63.4218 89.5667 61.2752C88.3324 59.1286 87.0176 57.0357 85.7029 54.9964C89.5131 55.5599 93.1891 56.2575 96.7041 57.1162ZM84.4149 85.6927C82.322 89.3151 80.1754 92.7497 77.9483 95.9427C73.9502 96.2916 69.8985 96.4794 65.82 96.4794C61.7683 96.4794 57.7166 96.2916 53.7454 95.9696C51.5183 92.7765 49.3449 89.3688 47.2519 85.7732C45.2127 82.2582 43.3612 78.6895 41.6708 75.0939C43.3344 71.4984 45.2127 67.9028 47.2251 64.3878C49.3181 60.7654 51.4646 57.3308 53.6917 54.1378C57.6898 53.789 61.7415 53.6011 65.82 53.6011C69.8717 53.6011 73.9234 53.789 77.8946 54.1109C80.1217 57.304 82.2951 60.7117 84.3881 64.3073C86.4273 67.8223 88.2788 71.391 89.9692 74.9866C88.2788 78.5821 86.4273 82.1777 84.4149 85.6927ZM93.0818 82.2045C94.5307 85.8001 95.765 89.3956 96.7847 92.8838C93.2696 93.7425 89.5667 94.467 85.7297 95.0304C87.0445 92.9643 88.3593 90.8446 89.5936 88.6711C90.8279 86.5245 91.9816 84.3511 93.0818 82.2045ZM65.8737 110.835C63.3783 108.259 60.8828 105.388 58.4142 102.248C60.8292 102.356 63.2978 102.436 65.7932 102.436C68.3154 102.436 70.8108 102.383 73.2526 102.248C70.8377 105.388 68.3423 108.259 65.8737 110.835ZM45.9103 95.0304C42.1001 94.467 38.4241 93.7693 34.909 92.9107C35.9018 89.4493 37.1361 85.8806 38.5314 82.3119C39.6315 84.4584 40.7853 86.605 42.0465 88.7516C43.3076 90.8982 44.5955 92.9912 45.9103 95.0304ZM65.7395 39.1921C68.2349 41.768 70.7303 44.6391 73.1989 47.7785C70.784 47.6712 68.3154 47.5907 65.82 47.5907C63.2978 47.5907 60.8023 47.6443 58.3606 47.7785C60.7755 44.6391 63.2709 41.768 65.7395 39.1921ZM45.8835 54.9964C44.5687 57.0625 43.2539 59.1823 42.0196 61.3557C40.7853 63.5023 39.6315 65.6489 38.5314 67.7955C37.0824 64.1999 35.8482 60.6044 34.8285 57.1162C38.3436 56.2844 42.0465 55.5599 45.8835 54.9964V54.9964ZM21.6001 88.5906C12.1014 84.5389 5.9568 79.2261 5.9568 75.0134C5.9568 70.8007 12.1014 65.4611 21.6001 61.4362C23.9077 60.4434 26.43 59.5579 29.0327 58.7261C30.5622 63.9853 32.5746 69.4591 35.07 75.0671C32.6014 80.6482 30.6158 86.0952 29.1132 91.3275C26.4568 90.4957 23.9346 89.5834 21.6001 88.5906ZM36.036 126.934C32.3868 124.841 30.8037 116.872 32.038 106.622C32.3331 104.1 32.8161 101.443 33.4064 98.7333C38.6656 100.021 44.4077 101.014 50.445 101.658C54.0674 106.622 57.8239 111.13 61.6073 115.074C52.8599 123.204 44.6492 127.659 39.068 127.659C37.8606 127.632 36.841 127.39 36.036 126.934V126.934ZM99.6826 106.488C100.944 116.738 99.3874 124.707 95.765 126.827C94.96 127.31 93.9136 127.525 92.6793 127.525C87.125 127.525 78.8874 123.097 70.14 115.021C73.8966 111.076 77.6531 106.595 81.2218 101.631C87.286 100.987 93.0281 99.9944 98.2873 98.6796C98.9044 101.39 99.3874 103.992 99.6826 106.488V106.488ZM110.013 88.5906C107.705 89.5834 105.183 90.4689 102.58 91.3007C101.051 86.0416 99.0386 80.5677 96.5432 74.9598C99.0117 69.3786 100.997 63.9316 102.5 58.6993C105.156 59.5311 107.679 60.4434 110.04 61.4362C119.539 65.4879 125.683 70.8007 125.683 75.0134C125.656 79.2261 119.512 84.5658 110.013 88.5906V88.5906Z" fill="#81D8F7" />
    <path d="M65.7932 87.2759C72.5655 87.2759 78.0556 81.7858 78.0556 75.0134C78.0556 68.2411 72.5655 62.751 65.7932 62.751C59.0208 62.751 53.5307 68.2411 53.5307 75.0134C53.5307 81.7858 59.0208 87.2759 65.7932 87.2759Z" fill="#81D8F7" />
  </g>
  <defs>
    <clipPath id="clip0_1_62">
      <rect width="131.64" height="150" fill="white" />
    </clipPath>
  </defs>
</svg>
